<svg width="15" height="15" viewBox="0 0 15 15" fill="none" xmlns="http://www.w3.org/2000/svg">
<path d="M0 3.375C0 5.23896 1.51104 6.75 3.375 6.75C5.23896 6.75 6.75 5.23896 6.75 3.375C6.75 1.51104 5.23896 1.8049e-06 3.375 1.8049e-06C1.51104 1.8049e-06 0 1.51104 0 3.375ZM0 10.875C0 12.739 1.51104 14.25 3.375 14.25C5.23896 14.25 6.75 12.739 6.75 10.875C6.75 9.01103 5.23896 7.5 3.375 7.5C1.51104 7.5 0 9.01103 0 10.875ZM7.5 10.875C7.5 12.739 9.01102 14.25 10.875 14.25C12.739 14.25 14.25 12.739 14.25 10.875C14.25 9.01103 12.739 7.5 10.875 7.5C9.01102 7.5 7.5 9.01103 7.5 10.875ZM5.25 3.375C5.25 4.41053 4.41053 5.25 3.375 5.25C2.33947 5.25 1.5 4.41053 1.5 3.375C1.5 2.33947 2.33947 1.5 3.375 1.5C4.41053 1.5 5.25 2.33947 5.25 3.375ZM5.25 10.875C5.25 11.9105 4.41053 12.75 3.375 12.75C2.33947 12.75 1.5 11.9105 1.5 10.875C1.5 9.83948 2.33947 9 3.375 9C4.41053 9 5.25 9.83948 5.25 10.875ZM12.75 10.875C12.75 11.9105 11.9105 12.75 10.875 12.75C9.83947 12.75 9 11.9105 9 10.875C9 9.83948 9.83947 9 10.875 9C11.9105 9 12.75 9.83948 12.75 10.875ZM11.2689 6.49125L11.477 6.01395C11.8478 5.16299 12.5157 4.48544 13.3491 4.11479L13.9901 3.82973C14.3366 3.6756 14.3366 3.1713 13.9901 3.01717L13.385 2.74805C12.5301 2.36785 11.8502 1.66523 11.4857 0.785342L11.2721 0.269589C11.1232 -0.0898631 10.6268 -0.0898631 10.4779 0.269589L10.2642 0.785342C9.89978 1.66523 9.2199 2.36785 8.36505 2.74805L7.75995 3.01717C7.41337 3.1713 7.41337 3.6756 7.75995 3.82973L8.40083 4.11479C9.2343 4.48544 9.90217 5.16299 10.273 6.01395L10.4811 6.49125C10.6334 6.84068 11.1166 6.84068 11.2689 6.49125Z" fill="#1D2129"/>
</svg>
