<svg width="24" height="24" viewBox="0 0 24 24" fill="none" xmlns="http://www.w3.org/2000/svg">
<rect width="24" height="24" rx="6" fill="black" fill-opacity="0.01"/>
<rect opacity="0.01" x="4" y="4" width="16" height="16" fill="black"/>
<path fill-rule="evenodd" clip-rule="evenodd" d="M8.625 5H17C17.2766 5 17.5 5.22344 17.5 5.5V16.875C17.5 16.9438 17.4438 17 17.375 17H16.5C16.4312 17 16.375 16.9438 16.375 16.875V6.125H8.625C8.55625 6.125 8.5 6.06875 8.5 6V5.125C8.5 5.05625 8.55625 5 8.625 5ZM7 7H15C15.2766 7 15.5 7.22344 15.5 7.5V18.5C15.5 18.7766 15.2766 19 15 19H9.70781C9.64844 19 9.59063 18.9891 9.53594 18.9688H9.47031V18.9391C9.42813 18.9156 9.38906 18.8875 9.35469 18.8531L6.64687 16.1453C6.55312 16.0516 6.5 15.925 6.5 15.7922V7.5C6.5 7.22344 6.72344 7 7 7ZM9.46875 17.3781L8.12344 16.0312H9.46875V17.3781ZM10.4688 17.875H14.375V8.125H7.625V15.0312H9.84375C10.1891 15.0312 10.4688 15.3109 10.4688 15.6562V17.875Z" fill="#333333"/>
</svg>

