<svg width="24" height="24" viewBox="0 0 24 24" fill="none" xmlns="http://www.w3.org/2000/svg">
<rect width="24" height="24" rx="6" fill="black" fill-opacity="0.01"/>
<rect opacity="0.01" x="4" y="4" width="16" height="16" fill="black"/>
<path fill-rule="evenodd" clip-rule="evenodd" d="M17.8422 11.6608C17.8984 11.4733 17.9266 11.2796 17.9266 11.0827C17.9266 10.6405 17.7812 10.2155 17.5188 9.86865C17.575 9.68115 17.6031 9.4874 17.6031 9.29053C17.6031 8.84834 17.4578 8.42334 17.1953 8.07646C17.2516 7.88896 17.2797 7.69521 17.2797 7.49834C17.2797 6.69209 16.8 5.96553 16.0562 5.64834C15.9266 5.59209 15.7875 5.56396 15.6422 5.56396H6.25C5.97344 5.56396 5.75 5.7874 5.75 6.06396V11.7515C5.75 12.028 5.97344 12.2515 6.25 12.2515H8.27031L9.61094 17.1077C9.82656 17.8905 10.5453 18.4374 11.3578 18.4374C11.8219 18.4374 12.2547 18.253 12.575 17.9155C12.8953 17.5796 13.0594 17.139 13.0359 16.6749L12.9422 14.7546H16.6906C16.8797 14.7546 17.0641 14.7046 17.2266 14.6093C17.8578 14.2421 18.25 13.5765 18.25 12.8749C18.25 12.4327 18.1047 12.0077 17.8422 11.6608ZM6.875 11.1249V6.6874H8.14062V11.1249H6.875ZM11.7625 13.6312H16.675C16.9531 13.4608 17.125 13.1733 17.125 12.8749C17.125 12.6171 17.0141 12.3718 16.8188 12.203L16.4766 11.9062L16.6953 11.5077C16.7672 11.3765 16.8031 11.2327 16.8031 11.0812C16.8031 10.8233 16.6922 10.578 16.4969 10.4093L16.1547 10.1124L16.3719 9.71553C16.4437 9.58428 16.4797 9.44053 16.4797 9.28896C16.4797 9.03115 16.3687 8.78584 16.1734 8.61709L15.8313 8.32021L16.0484 7.92334C16.1203 7.79209 16.1562 7.64834 16.1562 7.49678C16.1562 7.14678 15.95 6.83115 15.6313 6.6874H9.14062V11.1749L10.6953 16.8077C10.7781 17.103 11.0484 17.3108 11.3547 17.3124C11.4719 17.314 11.5891 17.278 11.6844 17.2077C11.8391 17.0921 11.9219 16.9171 11.9125 16.7312L11.7625 13.6312Z" fill="#333333"/>
</svg>

