<svg width="24" height="24" viewBox="0 0 24 24" fill="none" xmlns="http://www.w3.org/2000/svg">
<rect width="24" height="24" rx="6" fill="black" fill-opacity="0.01"/>
<rect opacity="0.01" x="4" y="4" width="16" height="16" fill="black"/>
<path fill-rule="evenodd" clip-rule="evenodd" d="M6 12.2476V6.50485C6 6.22561 6.23237 6 6.52 6H7.57625V12.7524H6.52C6.23237 12.7524 6 12.5268 6 12.2476ZM18.6636 11.5739C18.6636 11.7727 18.6344 11.9683 18.5759 12.1576C18.8489 12.5079 19 12.937 19 13.3835C19 14.0919 18.5921 14.764 17.9356 15.1347C17.7666 15.2309 17.5749 15.2814 17.3783 15.2814H13.4799L13.5774 17.2204C13.6017 17.689 13.4311 18.1339 13.098 18.4731C12.7649 18.8138 12.3147 19 11.8321 19C10.9871 19 10.2396 18.4478 10.0154 17.6574L8.62112 12.754H8.61625V6.00158H16.2879C16.439 6.00158 16.5836 6.02998 16.7185 6.08677C17.492 6.40704 17.9909 7.14066 17.9909 7.95473C17.9909 8.15352 17.9616 8.34915 17.9031 8.53847C18.1761 8.88871 18.3273 9.31784 18.3273 9.76432C18.3273 9.96311 18.298 10.1587 18.2395 10.3481C18.5125 10.6983 18.6636 11.1274 18.6636 11.5739Z" fill="black" fill-opacity="0.45"/>
</svg>

