<svg width="16" height="15" viewBox="0 0 16 15" fill="none" xmlns="http://www.w3.org/2000/svg">
<path d="M12.9954 4.95008L12.8242 5.34291C12.6989 5.6305 12.3011 5.6305 12.1758 5.34291L12.0046 4.95008C11.6994 4.24963 11.1497 3.69195 10.4637 3.38686L9.93611 3.15224C9.6509 3.02537 9.6509 2.61029 9.93611 2.48342L10.4342 2.2619C11.1378 1.94897 11.6974 1.37065 11.9973 0.64641L12.1731 0.221896C12.2957 -0.0739655 12.7043 -0.0739655 12.8268 0.221896L13.0026 0.64641C13.3026 1.37065 13.8622 1.94897 14.5658 2.2619L15.0638 2.48342C15.3491 2.61029 15.3491 3.02537 15.0638 3.15224L14.5363 3.38686C13.8503 3.69195 13.3006 4.24963 12.9954 4.95008ZM5.55555 1.38889H8.33333V2.77778H5.55555C3.25437 2.77778 1.38889 4.64326 1.38889 6.94444C1.38889 9.45139 3.09867 11.0872 6.94444 12.8332V11.1111H8.33333C10.6345 11.1111 12.5 9.24563 12.5 6.94444H13.8889C13.8889 10.0127 11.4016 12.5 8.33333 12.5V14.9306C4.86111 13.5417 0 11.4583 0 6.94444C0 3.87619 2.48731 1.38889 5.55555 1.38889Z" fill="black"/>
</svg>

