<svg width="24" height="24" viewBox="0 0 24 24" fill="none" xmlns="http://www.w3.org/2000/svg">
<rect width="24" height="24" rx="6" fill="black" fill-opacity="0.01"/>
<rect opacity="0.01" x="4" y="4" width="16" height="16" fill="black"/>
<path fill-rule="evenodd" clip-rule="evenodd" d="M17.8422 12.3392C18.1047 11.9923 18.25 11.5673 18.25 11.1251C18.25 10.4235 17.8578 9.75947 17.2266 9.38916C17.0641 9.29384 16.879 9.24367 16.6906 9.24385H12.9437L13.0375 7.32354C13.0594 6.85947 12.8953 6.41885 12.5766 6.08291C12.2562 5.74697 11.825 5.56104 11.3594 5.56104C10.5469 5.56104 9.82812 6.10791 9.6125 6.89072L8.27031 11.7501H6.25C5.97344 11.7501 5.75 11.9735 5.75 12.2501V17.9376C5.75 18.2142 5.97344 18.4376 6.25 18.4376H15.6453C15.7891 18.4376 15.9297 18.4095 16.0594 18.3532C16.8031 18.036 17.2828 17.3095 17.2828 16.5032C17.2828 16.3063 17.2547 16.1126 17.1984 15.9251C17.4609 15.5782 17.6062 15.1532 17.6062 14.711C17.6062 14.5142 17.5781 14.3204 17.5219 14.1329C17.7844 13.786 17.9297 13.361 17.9297 12.9188C17.9266 12.722 17.8984 12.5267 17.8422 12.3392ZM6.875 17.3126V12.8751H8.14062V17.3126H6.875ZM16.4766 12.0938L16.8188 11.797C17.0125 11.6267 17.125 11.3829 17.125 11.1251C17.125 10.8267 16.9531 10.5392 16.675 10.3688H11.7625L11.9125 7.26885C11.9219 7.08291 11.8391 6.90791 11.6844 6.79229C11.5906 6.72197 11.4734 6.6876 11.3547 6.6876C11.0469 6.68916 10.7766 6.89697 10.6953 7.19229L9.14062 12.8251V17.311H15.6297C15.9484 17.1673 16.1547 16.8517 16.1547 16.5017C16.1547 16.3501 16.1187 16.2063 16.0469 16.0751L15.8297 15.6782L16.1719 15.3813C16.3656 15.2126 16.4781 14.9673 16.4781 14.7095C16.4781 14.5579 16.4422 14.4142 16.3703 14.2829L16.1531 13.886L16.4953 13.5892C16.6891 13.4204 16.8016 13.1751 16.8016 12.9173C16.8016 12.7657 16.7656 12.622 16.6938 12.4907L16.4766 12.0938Z" fill="#333333"/>
</svg>

