<svg width="24" height="24" viewBox="0 0 24 24" fill="none" xmlns="http://www.w3.org/2000/svg">
<rect width="24" height="24" rx="6" fill="black" fill-opacity="0.01"/>
<rect opacity="0.01" x="4" y="4" width="16" height="16" fill="black"/>
<path fill-rule="evenodd" clip-rule="evenodd" d="M18.25 11.1251C18.25 11.5673 18.1047 11.9923 17.8422 12.3392C17.8984 12.5267 17.9266 12.722 17.9297 12.9188C17.9297 13.361 17.7844 13.786 17.5219 14.1329C17.5781 14.3204 17.6062 14.5142 17.6062 14.711C17.6062 15.1532 17.4609 15.5782 17.1984 15.9251C17.2547 16.1126 17.2828 16.3063 17.2828 16.5032C17.2828 17.3095 16.8031 18.036 16.0594 18.3532C15.9297 18.4095 15.7891 18.4376 15.6453 18.4376H8.26562V11.7501H8.27031L9.6125 6.89072C9.82812 6.10791 10.5469 5.56104 11.3594 5.56104C11.825 5.56104 12.2562 5.74697 12.5766 6.08291C12.8953 6.41885 13.0594 6.85947 13.0375 7.32354L12.9437 9.24385H16.6906C16.879 9.24367 17.0641 9.29384 17.2266 9.38916C17.8578 9.75947 18.25 10.4235 18.25 11.1251ZM5.75 17.9376V12.2501C5.75 11.9735 5.97344 11.7501 6.25 11.7501H7.26562V18.4376H6.25C5.97344 18.4376 5.75 18.2142 5.75 17.9376Z" fill="black" fill-opacity="0.45"/>
</svg>

